<svg width="90" height="90" viewBox="0 0 90 90" fill="none" xmlns="http://www.w3.org/2000/svg">
  <rect width="90" height="90" rx="17" fill="white" />
  <path d="M74.5953 46.7753C74.5953 51.0726 73.5209 55.1206 71.6408 58.6697C67.3435 66.7464 58.8255 72.2332 49.0222 72.2332C39.2189 72.2332 30.701 66.7272 26.4036 58.6697C24.5236 55.1206 23.4492 51.0726 23.4492 46.7753C23.4492 42.478 24.5236 38.43 26.4036 34.8809C30.701 26.8042 39.2189 21.3174 49.0222 21.3174C58.8255 21.3174 67.3435 26.8234 71.6408 34.8809C73.5401 38.43 74.5953 42.478 74.5953 46.7753Z" fill="#1E3D74" />
  <path d="M49.0215 73.2112C39.1606 73.2112 30.1631 67.8204 25.5588 59.1298C23.5444 55.3504 22.4893 51.0914 22.4893 46.7941C22.4893 42.4967 23.5444 38.2186 25.5588 34.4584C30.1823 25.7678 39.1606 20.377 49.0215 20.377C58.8824 20.377 67.8799 25.7678 72.4842 34.4584C74.4986 38.2378 75.5538 42.4967 75.5538 46.7941C75.5538 51.0914 74.4986 55.3696 72.4842 59.1298C67.8799 67.8204 58.8824 73.2112 49.0215 73.2112ZM49.0215 22.2762C39.8705 22.2762 31.5444 27.2834 27.2662 35.3409C25.4053 38.8325 24.4269 42.7845 24.4269 46.7749C24.4269 50.7653 25.4053 54.7173 27.2662 58.2281C31.5444 66.2856 39.8897 71.2928 49.0215 71.2928C58.1534 71.2928 66.4986 66.2856 70.7768 58.2281C72.6377 54.7365 73.6161 50.7653 73.6161 46.7749C73.6161 42.7845 72.6377 38.8325 70.7768 35.3409C66.5178 27.2834 58.1725 22.2762 49.0215 22.2762Z" fill="#1E3D74" />
  <path d="M35.4011 60.3191C35.4011 60.3191 34.7488 62.1992 32.37 66.4007C30.6242 69.4894 26.4036 70.1416 23.8328 67.686C21.5882 65.5565 19.2861 62.9666 17.2525 60.1081C13.8185 55.312 11.1518 49.7101 10.7681 44.0506C10.5379 40.9427 12.3029 38.0459 15.1806 36.8181C25.9048 32.1946 34.346 36.0507 34.346 36.0507L34.4419 38.1802L35.4011 60.3191Z" fill="#F68317" />
  <path d="M35.4004 60.32C35.4004 60.32 34.7481 62.2001 32.3692 66.4015C30.6234 69.4902 26.4028 70.1425 23.8321 67.6869C21.5875 65.5574 19.2853 62.9675 17.2518 60.109C14.7194 55.9651 12.8777 51.3992 12.5708 46.7757C12.3597 43.6678 14.1247 40.7709 16.9832 39.5239C24.8297 36.1474 31.4484 37.2985 34.4412 38.1618L35.4004 60.32Z" fill="#EA5023" />
  <path d="M79.621 48.8646C79.3141 51.5504 77.0887 53.4689 74.5947 53.6415C73.8273 53.6991 73.0215 53.584 72.235 53.2962C67.7074 51.5504 66 50.5144 66 50.5144L51.2471 31.138C51.2471 31.138 55.295 22.8119 66.518 19.5698C68.705 18.9367 71.0072 19.3587 72.7913 20.6057C73.4628 21.0661 74.0575 21.6609 74.5563 22.3515C79.8704 29.6992 80.5803 40.6344 79.621 48.8646Z" fill="#F68317" />
  <path d="M79.6214 48.8653C79.3144 51.5511 77.089 53.4696 74.5951 53.6423C71.8517 52.4912 70.2593 52.2034 70.2593 52.2034L56.0244 32.4433C56.0244 32.4433 60.0724 24.1172 71.2953 20.875C71.7941 20.7216 72.3121 20.6448 72.8109 20.6064C73.4823 21.0669 74.0771 21.6616 74.5759 22.3522C79.8708 29.6999 80.5806 40.6351 79.6214 48.8653Z" fill="#EA5023" />
  <path d="M54.3361 67.2262C46.9884 69.1255 39.5448 66.9384 34.4226 62.0847C31.6408 59.4565 29.5305 56.0416 28.4945 52.0512C25.5593 40.7515 32.3698 29.2408 43.7079 26.3247C52.8014 23.9842 62.0675 27.8979 66.8636 35.3607C68.0531 37.2024 68.9548 39.2551 69.5495 41.4805C72.4847 52.7994 65.6742 64.3101 54.3361 67.2262Z" fill="#FFB817" />
  <path d="M54.3358 67.225C46.9881 69.1243 39.5445 66.9373 34.4223 62.0836C33.2328 60.2419 32.3311 58.1891 31.7364 55.9637C28.8012 44.664 35.6309 33.1533 46.9689 30.2372C54.3166 28.3379 61.7602 30.525 66.8825 35.3787C68.072 37.2204 68.9736 39.2731 69.5683 41.4986C72.4844 52.7983 65.6739 64.309 54.3358 67.225Z" fill="#F68317" />
  <path d="M46.22 34.0942C45.0306 36.0127 43.0546 37.7201 40.7908 38.9287C38.7572 40.0222 36.4935 40.7129 34.4215 40.7896C34.1913 40.8088 33.9611 40.8088 33.7309 40.7896C33.5774 40.7896 33.4239 40.7704 33.2705 40.7704C31.2369 40.617 29.8364 39.792 29.165 38.5834L26.7285 34.0942L31.3712 31.6194C32.4455 30.5259 33.7884 29.5475 35.2273 28.7801C36.6661 28.0127 38.2201 27.4372 39.7357 27.1494L44.4359 24.6362L44.9922 25.6722L45.1649 25.9983L46.8531 29.1254C47.563 30.4108 47.4095 32.1949 46.22 34.0942Z" fill="#7398FF" />
  <path d="M49.5398 20.9893L42.0003 33.2098C41.3672 34.2266 40.312 35.1475 39.1034 35.7806C37.8948 36.4329 36.5519 36.8165 35.3432 36.7782L20.8781 36.3369C20.4752 36.3177 20.1299 36.2602 19.8229 36.1643C19.1707 35.9724 18.7102 35.6079 18.4608 35.1475C18.0771 34.4568 18.1539 33.5168 18.787 32.5L26.3265 20.2795C26.9596 19.2627 28.0147 18.3418 29.2234 17.7087C30.432 17.0564 31.7749 16.6728 32.9835 16.7111L47.4487 17.1524C48.6573 17.1907 49.5014 17.632 49.8851 18.3226C49.9235 18.3994 49.9619 18.4761 50.0002 18.5528C50.2305 19.2435 50.0962 20.0876 49.5398 20.9893Z" fill="#A3BDFF" />
  <path d="M46.22 34.0942C45.0306 36.0127 43.0546 37.7201 40.7908 38.9287C38.7572 40.0222 36.4935 40.7129 34.4215 40.7896C34.1913 40.8088 33.9611 40.8088 33.7309 40.7896C33.5774 40.7896 33.4239 40.7704 33.2705 40.7704C31.2369 40.617 29.8364 39.792 29.165 38.5834L26.7285 34.0942L31.3712 31.6194C32.4455 30.5259 33.7884 29.5475 35.2273 28.7801C36.6661 28.0127 38.2201 27.4372 39.7357 27.1494L44.4359 24.6362L44.9922 25.6722L45.1649 25.9983L46.8531 29.1254C47.563 30.4108 47.4095 32.1949 46.22 34.0942Z" fill="#7398FF" />
  <path d="M46.2207 34.0948C45.0313 36.0132 43.0553 37.7207 40.7915 38.9293C38.7579 40.0228 36.4941 40.7134 34.4222 40.7902C34.3071 40.7902 34.192 40.771 34.0769 40.771L30.2783 33.9797L34.921 31.4857C35.9761 30.3921 37.2999 29.4329 38.7387 28.6655C40.1776 27.8982 41.7315 27.3226 43.2471 27.0348L45.1656 26.0181L46.8538 29.1451C47.5636 30.4113 47.4102 32.1955 46.2207 34.0948Z" fill="#4A50FF" />
  <path d="M49.5398 20.9893L42.0003 33.2098C41.3672 34.2266 40.312 35.1475 39.1034 35.7806C37.8948 36.4329 36.5519 36.8165 35.3432 36.7782L20.8781 36.3369C20.4752 36.3177 20.1299 36.2602 19.8229 36.1643C19.1707 35.9724 18.7102 35.6079 18.4608 35.1475C18.0771 34.4568 18.1539 33.5168 18.787 32.5L26.3265 20.2795C26.9596 19.2627 28.0147 18.3418 29.2234 17.7087C30.432 17.0564 31.7749 16.6728 32.9835 16.7111L47.4487 17.1524C48.6573 17.1907 49.5014 17.632 49.8851 18.3226C49.9235 18.3994 49.9619 18.4761 50.0002 18.5528C50.2305 19.2435 50.0962 20.0876 49.5398 20.9893Z" fill="#A3BDFF" />
  <path d="M49.5392 20.9914L41.9996 33.2119C41.3665 34.2287 40.3114 35.1496 39.1028 35.7827C37.8941 36.435 36.5512 36.8186 35.3426 36.7803L20.8774 36.339C20.4745 36.3198 20.1292 36.2623 19.8223 36.1664C19.9182 35.8978 20.0525 35.6292 20.2251 35.3414L28.4361 22.0082C29.1268 20.8955 30.2779 19.8979 31.6016 19.2072C32.9061 18.4974 34.3833 18.0945 35.7071 18.1329L49.9804 18.5549C50.2298 19.2456 50.0955 20.0897 49.5392 20.9914Z" fill="#7398FF" />
  <path d="M69.7987 64.0223C69.6452 65.1734 69.2423 66.4012 68.5133 67.629C64.5229 74.4396 56.6956 76.0894 50.4223 71.9456C46.3359 69.2597 43.7077 63.9264 42.1921 59.725C40.9643 56.3677 40.4463 53.7202 40.4463 53.7202L61.3383 56.6171C65.9042 54.948 70.4701 58.8233 69.7987 64.0223Z" fill="#F68317" />
  <path d="M69.799 64.0215C69.6455 65.1725 69.2426 66.4004 68.5136 67.6282C64.5232 74.4387 56.6959 76.0886 50.4226 71.9447C46.3363 69.2589 43.708 63.9255 42.1924 59.7241C42.1924 59.7241 47.9286 70.8896 57.0412 71.6761C64.4465 72.3092 67.9189 67.9927 69.799 64.0215Z" fill="#FFB817" />
  <path d="M27.5731 69.9309C26 69.9309 24.4844 69.3362 23.3142 68.2235C20.9353 65.9406 17.4821 62.2379 14.6427 57.4993C11.861 52.8759 10.307 48.3675 10.0193 44.1085C9.90416 42.4203 10.307 40.7896 11.1703 39.3507C12.0528 37.9119 13.319 36.7992 14.873 36.1277C16.0624 35.6098 17.2902 35.1685 18.518 34.8232C18.9017 34.7081 19.3238 34.9383 19.4197 35.322C19.5348 35.7057 19.3046 36.1086 18.9209 36.2237C17.7698 36.5498 16.5996 36.9719 15.4677 37.4515C12.8969 38.5642 11.3046 41.1925 11.4773 43.9742C12.2063 54.7751 21.4916 64.425 24.3309 67.13C25.3861 68.1468 26.8249 68.588 28.283 68.377C29.741 68.166 31.0072 67.3027 31.717 66.0173C32.5803 64.4825 33.3093 63.0821 33.904 61.8734C34.0767 61.5089 34.5179 61.3554 34.8825 61.5281C35.247 61.7008 35.4004 62.142 35.2278 62.5065C34.6331 63.7535 33.8849 65.1732 33.0024 66.7463C32.0623 68.4345 30.4124 69.5473 28.494 69.835C28.187 69.9118 27.8801 69.9309 27.5731 69.9309Z" fill="#1E3D74" />
  <path d="M74.1914 54.3916C73.4432 54.3916 72.6758 54.2573 71.9468 53.9696C70.9876 53.605 70.0667 53.2405 69.2418 52.876C68.8773 52.7226 68.6855 52.2813 68.8581 51.9168C69.0116 51.5523 69.4528 51.3796 69.8173 51.5331C70.6423 51.8784 71.5248 52.2429 72.484 52.6075C73.8653 53.1446 75.3809 53.0103 76.647 52.2429C77.894 51.4947 78.719 50.2286 78.8916 48.7705C79.3521 44.8953 80.3305 31.562 73.9804 22.7755C72.3305 20.4925 69.4145 19.4949 66.7286 20.2623C61.1459 21.8738 57.4433 24.7898 55.3138 26.9577C55.0261 27.2455 54.5656 27.2455 54.2779 26.9769C53.9901 26.6891 53.9901 26.2287 54.2587 25.9409C57.4817 22.6604 61.6639 20.2047 66.3066 18.8618C67.9373 18.4014 69.6255 18.4398 71.2178 18.9961C72.8101 19.5525 74.1722 20.5692 75.1507 21.9313C77.6446 25.3846 79.3329 29.8546 80.1578 35.1687C81.0019 40.6363 80.7142 45.6818 80.3305 48.9432C80.1003 50.8425 79.0451 52.4923 77.3952 53.4899C76.4168 54.0847 75.3041 54.3916 74.1914 54.3916Z" fill="#1E3D74" />
  <path d="M67.3043 58.2273C67.17 58.2273 67.0549 58.189 66.9398 58.1314C66.5945 57.9204 66.4794 57.4791 66.6712 57.1338C69.453 52.4336 70.2204 46.9468 68.8583 41.6903C66.3067 31.8678 56.772 25.3642 46.6809 26.5345C46.278 26.5728 45.9135 26.2851 45.856 25.9014C45.8176 25.4985 46.1054 25.134 46.5082 25.0956C51.7264 24.4817 57.0022 25.7671 61.3763 28.7215C65.7887 31.6951 68.9542 36.1843 70.2779 41.3257C71.7359 46.9852 70.911 52.8557 67.9374 57.882C67.8031 58.1122 67.5537 58.2273 67.3043 58.2273Z" fill="#1E3D74" />
  <path d="M46.2205 68.4526C46.1821 68.4526 46.163 68.4526 46.1246 68.4526C41.8464 67.877 37.8752 66.0737 34.6138 63.2536C31.2757 60.3567 28.916 56.5582 27.8033 52.2608C26.6139 47.7141 26.9208 42.9947 28.6858 38.6398C28.8393 38.2561 29.2613 38.0834 29.645 38.2369C30.0287 38.3904 30.2014 38.8125 30.0479 39.1961C28.398 43.2633 28.1295 47.6565 29.223 51.8963C31.3141 59.973 38.0287 65.901 46.3164 67.0137C46.7193 67.0713 47.0071 67.4358 46.9495 67.8387C46.892 68.184 46.585 68.4526 46.2205 68.4526Z" fill="#1E3D74" />
  <path d="M57.636 74.938C55.0077 74.938 52.3794 74.1323 50.0005 72.5783C46.8351 70.468 44.1492 66.6695 41.9814 61.2786C40.3891 57.3074 39.7368 53.9885 39.6984 53.8542C39.6217 53.4513 39.8711 53.0676 40.2739 52.9909C40.6768 52.9141 41.0605 53.1635 41.1372 53.5664C41.1564 53.7007 43.8039 66.727 50.8063 71.3313C53.7031 73.2498 57.0221 73.9021 60.1683 73.173C63.3338 72.444 66.058 70.3337 67.8613 67.2642C69.9141 63.7534 69.1083 60.6647 67.6695 58.9573C66.1347 57.1156 63.775 56.4825 61.5304 57.3074C61.1467 57.4417 60.7247 57.2499 60.5904 56.8662C60.4561 56.4825 60.6479 56.0604 61.0316 55.9261C63.8326 54.9093 66.8637 55.7343 68.8014 58.0172C70.5664 60.1084 71.564 63.8302 69.1275 67.9932C67.1131 71.4272 64.0436 73.7678 60.4945 74.5927C59.5736 74.8229 58.6144 74.938 57.636 74.938Z" fill="#1E3D74" />
  <path d="M64.4076 64.0408C64.235 64.0408 64.0623 64.0217 63.9089 63.9833C62.6427 63.7147 61.7026 62.5061 61.3189 60.6452C60.2254 55.7531 59.5156 47.8874 59.4964 47.5613C59.458 47.1584 59.765 46.8131 60.1679 46.7747C60.5707 46.7364 60.9352 47.0433 60.9544 47.4462C60.9544 47.5229 61.6643 55.5613 62.7578 60.3574V60.3766C63.0072 61.6236 63.5635 62.4485 64.2158 62.5828C64.6762 62.6787 65.1942 62.4102 65.5971 61.873C65.8273 61.5468 66.2877 61.4701 66.6139 61.7003C66.94 61.9305 67.0167 62.391 66.7865 62.7171C66.1534 63.5612 65.2901 64.0408 64.4076 64.0408Z" fill="#1E3D74" />
  <path d="M46.5854 55.6945C46.3936 55.6945 46.2017 55.6178 46.0483 55.4643C45.7605 55.1765 45.7797 54.7161 46.0675 54.4283C46.2209 54.294 49.7701 50.9751 55.5063 51.7041C55.9091 51.7617 56.1969 52.1262 56.1393 52.5291C56.0818 52.9319 55.7173 53.2197 55.3144 53.1621C50.2689 52.5291 47.1034 55.4643 47.0651 55.4835C46.9499 55.637 46.7581 55.6945 46.5854 55.6945Z" fill="#1E3D74" />
  <path d="M48.7531 60.1278C48.5228 60.1278 48.2926 60.0127 48.1392 59.8016C47.9089 59.4755 48.0049 59.0151 48.331 58.7849C48.4845 58.6889 52.1104 56.2525 55.9473 56.5594C56.3501 56.5978 56.6571 56.9431 56.6187 57.346C56.5804 57.7489 56.235 58.0558 55.8322 58.0175C52.5132 57.7489 49.1943 59.9743 49.1559 59.9935C49.0408 60.0894 48.8874 60.1278 48.7531 60.1278Z" fill="#1E3D74" />
  <path d="M34.0188 41.5373C33.9037 41.5373 33.8077 41.5373 33.6926 41.5373C31.237 41.4605 29.3953 40.5397 28.5128 38.9473L27.4193 36.9138C27.2274 36.5493 27.3617 36.108 27.7262 35.9162C28.0907 35.7243 28.532 35.8586 28.7238 36.2231L29.8174 38.2567C30.4313 39.3694 31.8317 40.0217 33.7502 40.0792C35.8221 40.1368 38.201 39.5229 40.4456 38.3143C42.6902 37.1056 44.5319 35.4749 45.6062 33.7291C46.6038 32.0985 46.8149 30.6021 46.201 29.4894L45.1074 27.475C44.9156 27.1105 45.0499 26.6692 45.4144 26.4774C45.7789 26.2855 46.2201 26.4198 46.412 26.7843L47.4863 28.7795C48.3688 30.3719 48.1386 32.4054 46.8532 34.4965C45.6446 36.4534 43.611 38.2759 41.1362 39.5996C38.7765 40.8466 36.2634 41.5373 34.0188 41.5373Z" fill="#1E3D74" />
  <path d="M35.5147 37.5277C35.4571 37.5277 35.3995 37.5277 35.3228 37.5277L20.8577 37.0865C19.4188 37.0481 18.3253 36.4917 17.8073 35.5325C17.2893 34.5925 17.4236 33.3455 18.1526 32.1368L25.6922 19.9163C26.3636 18.8228 27.4955 17.806 28.8576 17.077C30.2197 16.3479 31.6969 15.9643 33.0015 16.0026L47.4666 16.4439C48.9055 16.4822 49.999 17.0386 50.517 17.9978C51.035 18.9379 50.9007 20.1849 50.1716 21.3935L42.6321 33.614C41.9607 34.7076 40.8288 35.7243 39.4667 36.4534C38.1429 37.144 36.7617 37.5277 35.5147 37.5277ZM32.8288 17.4606C31.8312 17.4606 30.6418 17.7868 29.5674 18.3623C28.4356 18.9762 27.4763 19.8204 26.9584 20.6837L19.4188 32.9042C18.9584 33.6524 18.8433 34.3431 19.1119 34.8227C19.3805 35.3023 20.0327 35.5901 20.9152 35.6092L35.3804 36.0505C36.4163 36.0889 37.6441 35.7435 38.776 35.1488C39.9079 34.5349 40.8671 33.71 41.3851 32.8275L48.9247 20.6069C49.3851 19.8587 49.5002 19.1681 49.2316 18.6885C48.963 18.2088 48.3108 17.9211 47.4283 17.9019L32.9631 17.4606C32.9056 17.4606 32.8672 17.4606 32.8288 17.4606Z" fill="#1E3D74" />
  <path d="M34.7292 49.9402C34.6716 49.9402 34.6333 49.9402 34.5757 49.921C34.1728 49.8442 33.9234 49.4605 34.0002 49.0577C34.4222 46.9282 36.1872 45.3167 38.3551 45.0673C40.1392 44.8562 41.9042 45.6236 42.9785 47.0433C43.2279 47.3694 43.1512 47.8299 42.8251 48.0601C42.4989 48.3095 42.0385 48.2327 41.7891 47.9066C41.0217 46.8898 39.7747 46.3526 38.5085 46.5061C36.9738 46.6788 35.7268 47.8298 35.4198 49.3262C35.3815 49.7099 35.0745 49.9402 34.7292 49.9402Z" fill="#1E3D74" />
  <path d="M24.7525 57.2489C24.3496 57.2489 24.0234 56.9227 24.0234 56.5199V38.0068C24.0234 36.8173 24.4839 35.6854 25.3088 34.8413L33.5582 26.2467C33.8459 25.9589 34.3064 25.9397 34.5941 26.2275C34.8819 26.5152 34.9011 26.9757 34.6133 27.2634L26.364 35.8581C25.8076 36.4336 25.5007 37.201 25.5007 38.026V56.5391C25.4815 56.9227 25.1553 57.2489 24.7525 57.2489Z" fill="#1E3D74" />
  <path d="M24.7534 58.5922C25.6646 58.5922 26.4033 57.8536 26.4033 56.9424C26.4033 56.0312 25.6646 55.2925 24.7534 55.2925C23.8422 55.2925 23.1035 56.0312 23.1035 56.9424C23.1035 57.8536 23.8422 58.5922 24.7534 58.5922Z" fill="#FF9D17" />
  <path d="M24.7539 59.3208C23.4302 59.3208 22.375 58.2464 22.375 56.9419C22.375 55.6373 23.4493 54.563 24.7539 54.563C26.0776 54.563 27.1328 55.6373 27.1328 56.9419C27.1328 58.2464 26.0584 59.3208 24.7539 59.3208ZM24.7539 56.021C24.2551 56.021 23.833 56.4239 23.833 56.9419C23.833 57.4599 24.2359 57.8627 24.7539 57.8627C25.2719 57.8627 25.6747 57.4599 25.6747 56.9419C25.6747 56.4239 25.2527 56.021 24.7539 56.021Z" fill="#1E3D74" />
  <path d="M55.8891 46.7751C58.2625 46.7751 60.1865 44.8597 60.1865 42.4969C60.1865 40.1341 58.2625 38.2188 55.8891 38.2188C53.5158 38.2188 51.5918 40.1341 51.5918 42.4969C51.5918 44.8597 53.5158 46.7751 55.8891 46.7751Z" fill="#1E3D74" />
  <path d="M54.6425 43.4934C55.5113 43.4934 56.2156 42.7891 56.2156 41.9203C56.2156 41.0515 55.5113 40.3472 54.6425 40.3472C53.7737 40.3472 53.0693 41.0515 53.0693 41.9203C53.0693 42.7891 53.7737 43.4934 54.6425 43.4934Z" fill="white" />
</svg>