<svg width="164" height="154" viewBox="0 0 164 154" fill="none" xmlns="http://www.w3.org/2000/svg">
  <g filter="url(#filter0_d)">
    <rect x="37" y="9" width="90" height="90" rx="17.0435" fill="white" />
  </g>
  <g clip-path="url(#clip0)">
    <path d="M110.737 56.3803C110.737 60.6776 109.663 64.7256 107.782 68.2747C103.485 76.3514 94.9671 81.8382 85.1638 81.8382C75.3605 81.8382 66.8426 76.3322 62.5452 68.2747C60.6652 64.7256 59.5908 60.6776 59.5908 56.3803C59.5908 52.0829 60.6652 48.035 62.5452 44.4858C66.8426 36.4091 75.3605 30.9224 85.1638 30.9224C94.9671 30.9224 103.485 36.4283 107.782 44.4858C109.682 48.035 110.737 52.0829 110.737 56.3803Z" fill="#1E3D74" />
    <path d="M85.1636 82.8162C75.3027 82.8162 66.3052 77.4253 61.7009 68.7347C59.6865 64.9554 58.6313 60.6964 58.6313 56.3991C58.6313 52.1017 59.6865 47.8236 61.7009 44.0634C66.3244 35.3728 75.3027 29.9819 85.1636 29.9819C95.0245 29.9819 104.022 35.3728 108.626 44.0634C110.641 47.8428 111.696 52.1017 111.696 56.3991C111.696 60.6964 110.641 64.9746 108.626 68.7347C104.022 77.4253 95.0245 82.8162 85.1636 82.8162ZM85.1636 31.8812C76.0126 31.8812 67.6865 36.8884 63.4083 44.9459C61.5474 48.4375 60.569 52.3895 60.569 56.3799C60.569 60.3703 61.5474 64.3223 63.4083 67.8331C67.6865 75.8906 76.0317 80.8978 85.1636 80.8978C94.2954 80.8978 102.641 75.8906 106.919 67.8331C108.78 64.3415 109.758 60.3703 109.758 56.3799C109.758 52.3895 108.78 48.4375 106.919 44.9459C102.66 36.8884 94.3146 31.8812 85.1636 31.8812Z" fill="#1E3D74" />
    <path d="M71.543 69.9241C71.543 69.9241 70.8907 71.8042 68.5118 76.0056C66.766 79.0944 62.5454 79.7466 59.9747 77.291C57.7301 75.1615 55.4279 72.5716 53.3944 69.7131C49.9603 64.917 47.2937 59.3151 46.91 53.6556C46.6798 50.5477 48.4448 47.6509 51.3224 46.423C62.0466 41.7996 70.4878 45.6557 70.4878 45.6557L70.5837 47.7851L71.543 69.9241Z" fill="#F68317" />
    <path d="M71.5425 69.925C71.5425 69.925 70.8902 71.8051 68.5113 76.0065C66.7655 79.0952 62.5449 79.7475 59.9742 77.2918C57.7296 75.1623 55.4274 72.5724 53.3939 69.7139C50.8615 65.5701 49.0198 61.0041 48.7128 56.3807C48.5018 53.2728 50.2668 50.3759 53.1253 49.1289C60.9718 45.7524 67.5905 46.9035 70.5832 47.7668L71.5425 69.925Z" fill="#EA5023" />
    <path d="M115.763 58.4696C115.456 61.1554 113.23 63.0738 110.736 63.2465C109.969 63.3041 109.163 63.189 108.377 62.9012C103.849 61.1554 102.142 60.1194 102.142 60.1194L87.3887 40.743C87.3887 40.743 91.4366 32.4169 102.66 29.1747C104.847 28.5416 107.149 28.9637 108.933 30.2107C109.604 30.6711 110.199 31.2659 110.698 31.9565C116.012 39.3042 116.722 50.2394 115.763 58.4696Z" fill="#F68317" />
    <path d="M115.763 58.4703C115.456 61.1561 113.231 63.0746 110.737 63.2472C107.993 62.0962 106.401 61.8084 106.401 61.8084L92.166 42.0483C92.166 42.0483 96.214 33.7222 107.437 30.48C107.936 30.3265 108.454 30.2498 108.952 30.2114C109.624 30.6719 110.219 31.2666 110.717 31.9572C116.012 39.3049 116.722 50.2401 115.763 58.4703Z" fill="#EA5023" />
    <path d="M90.478 76.8312C83.1303 78.7304 75.6867 76.5434 70.5644 71.6897C67.7826 69.0614 65.6723 65.6466 64.6364 61.6562C61.7011 50.3565 68.5116 38.8458 79.8497 35.9297C88.9432 33.5892 98.2093 37.5029 103.005 44.9656C104.195 46.8074 105.097 48.8601 105.691 51.0855C108.627 62.4044 101.816 73.9151 90.478 76.8312Z" fill="#FFB817" />
    <path d="M90.4777 76.83C83.13 78.7293 75.6864 76.5423 70.5641 71.6886C69.3747 69.8468 68.473 67.7941 67.8783 65.5687C64.943 54.269 71.7727 42.7582 83.1108 39.8422C90.4585 37.9429 97.9021 40.13 103.024 44.9837C104.214 46.8254 105.115 48.8781 105.71 51.1035C108.626 62.4032 101.816 73.914 90.4777 76.83Z" fill="#F68317" />
    <path d="M82.3624 43.6992C81.1729 45.6177 79.1969 47.3251 76.9331 48.5337C74.8996 49.6272 72.6358 50.3179 70.5639 50.3946C70.3336 50.4138 70.1034 50.4138 69.8732 50.3946C69.7197 50.3946 69.5663 50.3754 69.4128 50.3754C67.3792 50.2219 65.9788 49.397 65.3073 48.1884L62.8708 43.6992L67.5135 41.2244C68.5879 40.1309 69.9308 39.1525 71.3696 38.3851C72.8085 37.6177 74.3624 37.0422 75.878 36.7544L80.5782 34.2412L81.1346 35.2772L81.3072 35.6033L82.9955 38.7304C83.7053 40.0158 83.5518 41.7999 82.3624 43.6992Z" fill="#7398FF" />
    <path d="M85.6817 30.5943L78.1421 42.8148C77.509 43.8316 76.4539 44.7525 75.2453 45.3856C74.0366 46.0378 72.6937 46.4215 71.4851 46.3832L57.0199 45.9419C56.617 45.9227 56.2717 45.8652 55.9648 45.7692C55.3125 45.5774 54.8521 45.2129 54.6027 44.7525C54.219 44.0618 54.2957 43.1218 54.9288 42.105L62.4683 29.8844C63.1014 28.8677 64.1566 27.9468 65.3652 27.3137C66.5738 26.6614 67.9168 26.2777 69.1254 26.3161L83.5905 26.7574C84.7992 26.7957 85.6433 27.237 86.027 27.9276C86.0653 28.0043 86.1037 28.0811 86.1421 28.1578C86.3723 28.8485 86.238 29.6926 85.6817 30.5943Z" fill="#A3BDFF" />
    <path d="M82.3624 43.6992C81.1729 45.6177 79.1969 47.3251 76.9331 48.5337C74.8996 49.6272 72.6358 50.3179 70.5639 50.3946C70.3336 50.4138 70.1034 50.4138 69.8732 50.3946C69.7197 50.3946 69.5663 50.3754 69.4128 50.3754C67.3792 50.2219 65.9788 49.397 65.3073 48.1884L62.8708 43.6992L67.5135 41.2244C68.5879 40.1309 69.9308 39.1525 71.3696 38.3851C72.8085 37.6177 74.3624 37.0422 75.878 36.7544L80.5782 34.2412L81.1346 35.2772L81.3072 35.6033L82.9955 38.7304C83.7053 40.0158 83.5518 41.7999 82.3624 43.6992Z" fill="#7398FF" />
    <path d="M82.3633 43.6997C81.1738 45.6182 79.1978 47.3256 76.934 48.5343C74.9005 49.6278 72.6367 50.3184 70.5648 50.3952C70.4497 50.3952 70.3346 50.376 70.2194 50.376L66.4209 43.5846L71.0636 41.0906C72.1187 39.9971 73.4425 39.0379 74.8813 38.2705C76.3201 37.5031 77.8741 36.9276 79.3897 36.6398L81.3081 35.623L82.9964 38.7501C83.7062 40.0163 83.5527 41.8005 82.3633 43.6997Z" fill="#4A50FF" />
    <path d="M85.6817 30.5943L78.1421 42.8148C77.509 43.8316 76.4539 44.7525 75.2453 45.3856C74.0366 46.0378 72.6937 46.4215 71.4851 46.3832L57.0199 45.9419C56.617 45.9227 56.2717 45.8652 55.9648 45.7692C55.3125 45.5774 54.8521 45.2129 54.6027 44.7525C54.219 44.0618 54.2957 43.1218 54.9288 42.105L62.4683 29.8844C63.1014 28.8677 64.1566 27.9468 65.3652 27.3137C66.5738 26.6614 67.9168 26.2777 69.1254 26.3161L83.5905 26.7574C84.7992 26.7957 85.6433 27.237 86.027 27.9276C86.0653 28.0043 86.1037 28.0811 86.1421 28.1578C86.3723 28.8485 86.238 29.6926 85.6817 30.5943Z" fill="#A3BDFF" />
    <path d="M85.6815 30.5964L78.142 42.8169C77.5089 43.8337 76.4537 44.7546 75.2451 45.3877C74.0365 46.0399 72.6935 46.4236 71.4849 46.3853L57.0198 45.944C56.6169 45.9248 56.2716 45.8673 55.9646 45.7714C56.0605 45.5028 56.1948 45.2342 56.3675 44.9464L64.5785 31.6131C65.2691 30.5004 66.4202 29.5028 67.7439 28.8122C69.0485 28.1024 70.5257 27.6995 71.8494 27.7379L86.1227 28.1599C86.3721 28.8506 86.2378 29.6947 85.6815 30.5964Z" fill="#7398FF" />
    <path d="M105.941 73.6273C105.788 74.7784 105.385 76.0062 104.656 77.234C100.665 84.0446 92.8379 85.6944 86.5646 81.5506C82.4783 78.8647 79.85 73.5314 78.3344 69.33C77.1066 65.9727 76.5886 63.3252 76.5886 63.3252L97.4806 66.2221C102.047 64.553 106.612 68.4283 105.941 73.6273Z" fill="#F68317" />
    <path d="M105.941 73.6265C105.787 74.7775 105.384 76.0053 104.655 77.2332C100.665 84.0437 92.8375 85.6936 86.5642 81.5497C82.4779 78.8639 79.8496 73.5305 78.334 69.3291C78.334 69.3291 84.0702 80.4945 93.1828 81.2811C100.588 81.9142 104.061 77.5977 105.941 73.6265Z" fill="#FFB817" />
    <path d="M63.7152 79.5359C62.1421 79.5359 60.6265 78.9412 59.4563 77.8285C57.0774 75.5455 53.6241 71.8429 50.7848 67.1043C48.0031 62.4808 46.4491 57.9725 46.1614 53.7135C46.0462 52.0253 46.4491 50.3946 47.3124 48.9557C48.1949 47.5169 49.4611 46.4042 51.015 45.7327C52.2045 45.2147 53.4323 44.7735 54.6601 44.4282C55.0438 44.3131 55.4659 44.5433 55.5618 44.927C55.6769 45.3107 55.4467 45.7135 55.063 45.8286C53.9119 46.1548 52.7417 46.5768 51.6098 47.0565C49.039 48.1692 47.4467 50.7974 47.6194 53.5792C48.3484 64.3801 57.6337 74.03 60.473 76.735C61.5282 77.7518 62.967 78.193 64.4251 77.982C65.8831 77.7709 67.1493 76.9076 67.8591 75.6223C68.7224 74.0875 69.4514 72.687 70.0461 71.4784C70.2188 71.1139 70.66 70.9604 71.0245 71.1331C71.389 71.3057 71.5425 71.747 71.3699 72.1115C70.7751 73.3585 70.0269 74.7782 69.1445 76.3513C68.2044 78.0395 66.5545 79.1522 64.6361 79.44C64.3291 79.5167 64.0222 79.5359 63.7152 79.5359Z" fill="#1E3D74" />
    <path d="M110.334 63.9966C109.586 63.9966 108.818 63.8623 108.089 63.5745C107.13 63.21 106.209 62.8455 105.384 62.481C105.02 62.3275 104.828 61.8863 105.001 61.5218C105.154 61.1573 105.595 60.9846 105.96 61.1381C106.785 61.4834 107.667 61.8479 108.627 62.2124C110.008 62.7496 111.523 62.6153 112.79 61.8479C114.037 61.0997 114.862 59.8335 115.034 58.3755C115.495 54.5002 116.473 41.167 110.123 32.3804C108.473 30.0975 105.557 29.0999 102.871 29.8673C97.2885 31.4788 93.5859 34.3948 91.4564 36.5627C91.1686 36.8504 90.7082 36.8505 90.4204 36.5819C90.1327 36.2941 90.1327 35.8337 90.4012 35.5459C93.6243 32.2653 97.8065 29.8097 102.449 28.4668C104.08 28.0064 105.768 28.0447 107.36 28.6011C108.953 29.1574 110.315 30.1742 111.293 31.5363C113.787 34.9895 115.475 39.4596 116.3 44.7737C117.145 50.2413 116.857 55.2868 116.473 58.5482C116.243 60.4475 115.188 62.0973 113.538 63.0949C112.559 63.6896 111.447 63.9966 110.334 63.9966Z" fill="#1E3D74" />
    <path d="M103.446 67.8323C103.312 67.8323 103.197 67.7939 103.082 67.7364C102.737 67.5254 102.621 67.0841 102.813 66.7388C105.595 62.0386 106.362 56.5518 105 51.2952C102.449 41.4727 92.9141 34.9692 82.823 36.1394C82.4201 36.1778 82.0556 35.89 81.9981 35.5063C81.9597 35.1035 82.2475 34.739 82.6503 34.7006C87.8685 34.0867 93.1443 35.3721 97.5184 38.3265C101.931 41.3001 105.096 45.7893 106.42 50.9307C107.878 56.5902 107.053 62.4606 104.079 67.487C103.945 67.7172 103.696 67.8323 103.446 67.8323Z" fill="#1E3D74" />
    <path d="M82.3628 78.0576C82.3245 78.0576 82.3053 78.0576 82.2669 78.0576C77.9888 77.482 74.0175 75.6787 70.7562 72.8585C67.4181 69.9617 65.0584 66.1631 63.9456 61.8658C62.7562 57.3191 63.0632 52.5997 64.8281 48.2448C64.9816 47.8611 65.4037 47.6884 65.7874 47.8419C66.1711 47.9954 66.3437 48.4174 66.1902 48.8011C64.5404 52.8683 64.2718 57.2615 65.3653 61.5013C67.4564 69.578 74.171 75.506 82.4588 76.6187C82.8616 76.6763 83.1494 77.0408 83.0919 77.4437C83.0343 77.789 82.7273 78.0576 82.3628 78.0576Z" fill="#1E3D74" />
    <path d="M93.7778 84.543C91.1495 84.543 88.5212 83.7372 86.1424 82.1833C82.9769 80.073 80.2911 76.2745 78.1232 70.8836C76.5309 66.9124 75.8786 63.5935 75.8403 63.4592C75.7635 63.0563 76.0129 62.6726 76.4158 62.5959C76.8187 62.5191 77.2024 62.7685 77.2791 63.1714C77.2983 63.3057 79.9457 76.332 86.9481 80.9363C89.845 82.8548 93.1639 83.507 96.3102 82.778C99.4756 82.049 102.2 79.9387 104.003 76.8692C106.056 73.3584 105.25 70.2697 103.811 68.5623C102.277 66.7205 99.9169 66.0875 97.6723 66.9124C97.2886 67.0467 96.8665 66.8548 96.7322 66.4711C96.5979 66.0875 96.7898 65.6654 97.1735 65.5311C99.9744 64.5143 103.006 65.3393 104.943 67.6222C106.708 69.7133 107.706 73.4351 105.269 77.5982C103.255 81.0322 100.185 83.3727 96.6363 84.1977C95.7155 84.4279 94.7562 84.543 93.7778 84.543Z" fill="#1E3D74" />
    <path d="M100.549 73.6458C100.377 73.6458 100.204 73.6266 100.051 73.5883C98.7845 73.3197 97.8445 72.1111 97.4608 70.2502C96.3673 65.3581 95.6574 57.4924 95.6383 57.1663C95.5999 56.7634 95.9068 56.4181 96.3097 56.3797C96.7126 56.3413 97.0771 56.6483 97.0963 57.0512C97.0963 57.1279 97.8061 65.1662 98.8996 69.9624V69.9816C99.149 71.2286 99.7054 72.0535 100.358 72.1878C100.818 72.2837 101.336 72.0151 101.739 71.478C101.969 71.1518 102.43 71.0751 102.756 71.3053C103.082 71.5355 103.159 71.9959 102.928 72.3221C102.295 73.1662 101.432 73.6458 100.549 73.6458Z" fill="#1E3D74" />
    <path d="M82.727 65.2995C82.5352 65.2995 82.3433 65.2228 82.1899 65.0693C81.9021 64.7815 81.9213 64.3211 82.2091 64.0333C82.3625 63.899 85.9117 60.5801 91.6479 61.3091C92.0507 61.3667 92.3385 61.7312 92.2809 62.134C92.2234 62.5369 91.8589 62.8247 91.456 62.7671C86.4105 62.134 83.245 65.0693 83.2067 65.0885C83.0915 65.2419 82.8997 65.2995 82.727 65.2995Z" fill="#1E3D74" />
    <path d="M84.8952 69.7328C84.6649 69.7328 84.4347 69.6177 84.2812 69.4066C84.051 69.0805 84.147 68.6201 84.4731 68.3898C84.6266 68.2939 88.2525 65.8575 92.0894 66.1644C92.4922 66.2028 92.7992 66.5481 92.7608 66.951C92.7225 67.3539 92.3771 67.6608 91.9743 67.6225C88.6553 67.3539 85.3364 69.5793 85.298 69.5985C85.1829 69.6944 85.0294 69.7328 84.8952 69.7328Z" fill="#1E3D74" />
    <path d="M70.1613 51.1422C70.0462 51.1422 69.9503 51.1422 69.8352 51.1422C67.3796 51.0655 65.5379 50.1446 64.6554 48.5523L63.5619 46.5188C63.37 46.1543 63.5043 45.713 63.8688 45.5212C64.2333 45.3293 64.6746 45.4636 64.8664 45.8281L65.9599 47.8617C66.5738 48.9744 67.9743 49.6267 69.8928 49.6842C71.9647 49.7418 74.3436 49.1279 76.5882 47.9192C78.8328 46.7106 80.6745 45.0799 81.7488 43.3341C82.7464 41.7034 82.9574 40.207 82.3435 39.0943L81.25 37.08C81.0582 36.7155 81.1925 36.2742 81.557 36.0824C81.9215 35.8905 82.3627 36.0248 82.5546 36.3893L83.6289 38.3845C84.5114 39.9768 84.2812 42.0104 82.9958 44.1015C81.7872 46.0583 79.7536 47.8809 77.2788 49.2046C74.9191 50.4516 72.4059 51.1422 70.1613 51.1422Z" fill="#1E3D74" />
    <path d="M71.657 47.1327C71.5994 47.1327 71.5419 47.1327 71.4651 47.1327L57 46.6914C55.5612 46.6531 54.4676 46.0967 53.9497 45.1375C53.4317 44.1974 53.566 42.9504 54.295 41.7418L61.8345 29.5213C62.506 28.4277 63.6379 27.411 65 26.6819C66.3621 25.9529 67.8393 25.5692 69.1438 25.6076L83.609 26.0488C85.0478 26.0872 86.1413 26.6436 86.6593 27.6028C87.1773 28.5428 87.043 29.7898 86.314 30.9985L78.7745 43.219C78.103 44.3125 76.9711 45.3293 75.609 46.0583C74.2853 46.749 72.904 47.1327 71.657 47.1327ZM68.9712 27.0656C67.9736 27.0656 66.7841 27.3918 65.7098 27.9673C64.5779 28.5812 63.6187 29.4253 63.1007 30.2886L55.5612 42.5092C55.1007 43.2574 54.9856 43.948 55.2542 44.4277C55.5228 44.9073 56.1751 45.195 57.0576 45.2142L71.5227 45.6555C72.5587 45.6938 73.7865 45.3485 74.9184 44.7538C76.0503 44.1399 77.0095 43.315 77.5275 42.4325L85.067 30.2119C85.5274 29.4637 85.6425 28.7731 85.3739 28.2934C85.1054 27.8138 84.4531 27.5261 83.5706 27.5069L69.1054 27.0656C69.0479 27.0656 69.0095 27.0656 68.9712 27.0656Z" fill="#1E3D74" />
    <path d="M70.8715 59.5451C70.814 59.5451 70.7756 59.5451 70.718 59.5259C70.3152 59.4492 70.0658 59.0655 70.1425 58.6626C70.5646 56.5332 72.3295 54.9217 74.4974 54.6723C76.2816 54.4612 78.0465 55.2286 79.1209 56.6483C79.3703 56.9744 79.2935 57.4348 78.9674 57.665C78.6413 57.9144 78.1808 57.8377 77.9314 57.5116C77.164 56.4948 75.917 55.9576 74.6509 56.1111C73.1161 56.2838 71.8691 57.4348 71.5622 58.9312C71.5238 59.3149 71.2168 59.5451 70.8715 59.5451Z" fill="#1E3D74" />
    <path d="M60.8945 66.8539C60.4917 66.8539 60.1655 66.5277 60.1655 66.1248V47.6118C60.1655 46.4223 60.626 45.2904 61.4509 44.4463L69.7003 35.8516C69.988 35.5639 70.4485 35.5447 70.7362 35.8324C71.024 36.1202 71.0432 36.5806 70.7554 36.8684L62.506 45.4631C61.9497 46.0386 61.6427 46.806 61.6427 47.6309V66.144C61.6236 66.5277 61.2974 66.8539 60.8945 66.8539Z" fill="#1E3D74" />
    <path d="M60.8955 68.1972C61.8067 68.1972 62.5454 67.4585 62.5454 66.5473C62.5454 65.6361 61.8067 64.8975 60.8955 64.8975C59.9843 64.8975 59.2456 65.6361 59.2456 66.5473C59.2456 67.4585 59.9843 68.1972 60.8955 68.1972Z" fill="#FF9D17" />
    <path d="M60.8955 68.9258C59.5718 68.9258 58.5166 67.8514 58.5166 66.5469C58.5166 65.2423 59.5909 64.168 60.8955 64.168C62.2192 64.168 63.2744 65.2423 63.2744 66.5469C63.2744 67.8514 62.2 68.9258 60.8955 68.9258ZM60.8955 65.626C60.3967 65.626 59.9746 66.0289 59.9746 66.5469C59.9746 67.0648 60.3775 67.4677 60.8955 67.4677C61.4135 67.4677 61.8163 67.0648 61.8163 66.5469C61.8163 66.0289 61.3943 65.626 60.8955 65.626Z" fill="#1E3D74" />
    <path d="M92.0317 56.38C94.4051 56.38 96.329 54.4646 96.329 52.1019C96.329 49.7391 94.4051 47.8237 92.0317 47.8237C89.6584 47.8237 87.7344 49.7391 87.7344 52.1019C87.7344 54.4646 89.6584 56.38 92.0317 56.38Z" fill="#1E3D74" />
    <path d="M90.7843 53.0984C91.6531 53.0984 92.3575 52.3941 92.3575 51.5253C92.3575 50.6565 91.6531 49.9521 90.7843 49.9521C89.9155 49.9521 89.2112 50.6565 89.2112 51.5253C89.2112 52.3941 89.9155 53.0984 90.7843 53.0984Z" fill="white" />
  </g>
  <defs>
    <filter id="filter0_d" x="0.478264" y="-9.26087" width="163.043" height="163.043" filterUnits="userSpaceOnUse" color-interpolation-filters="sRGB">
      <feFlood flood-opacity="0" result="BackgroundImageFix" />
      <feColorMatrix in="SourceAlpha" type="matrix" values="0 0 0 0 0 0 0 0 0 0 0 0 0 0 0 0 0 0 127 0" result="hardAlpha" />
      <feOffset dy="18.2609" />
      <feGaussianBlur stdDeviation="18.2609" />
      <feColorMatrix type="matrix" values="0 0 0 0 0 0 0 0 0 0 0 0 0 0 0 0 0 0 0.06 0" />
      <feBlend mode="normal" in2="BackgroundImageFix" result="effect1_dropShadow" />
      <feBlend mode="normal" in="SourceGraphic" in2="effect1_dropShadow" result="shape" />
    </filter>
    <clipPath id="clip0">
      <rect width="70.7143" height="58.935" fill="white" transform="translate(46.1421 25.6084)" />
    </clipPath>
  </defs>
</svg>